<svg xmlns="http://www.w3.org/2000/svg" width="120" height="50" viewBox="0 0 120 50">
  <g fill="none" fill-rule="evenodd">
    <path fill="#2E4EAD" d="M28.5,5 C40.3741221,5 50,14.6258779 50,26.5 C50,38.3741221 40.3741221,48 28.5,48 C16.6258779,48 7,38.3741221 7,26.5 C7,14.6258779 16.6258779,5 28.5,5 Z M28.5,10 C19.3873016,10 12,17.3873016 12,26.5 C12,35.6126984 19.3873016,43 28.5,43 C37.6126984,43 45,35.6126984 45,26.5 C45,17.3873016 37.6126984,10 28.5,10 Z"/>
    <path fill="#2E4EAD" d="M28.5,15 C34.8512746,15 40,20.1487254 40,26.5 C40,32.8512746 34.8512746,38 28.5,38 C22.1487254,38 17,32.8512746 17,26.5 C17,20.1487254 22.1487254,15 28.5,15 Z"/>
    <path fill="#2E4EAD" d="M60,15 L67,15 C71.4183,15 75,18.5817 75,23 C75,27.4183 71.4183,31 67,31 L64,31 L64,38 L60,38 L60,15 Z M64,19 L64,27 L67,27 C69.2091,27 71,25.2091 71,23 C71,20.7909 69.2091,19 67,19 L64,19 Z"/>
    <path fill="#2E4EAD" d="M80,15 L84,15 L84,34 L92,34 L92,38 L80,38 L80,15 Z"/>
    <path fill="#2E4EAD" d="M95,15 L110,15 L110,19 L105,19 L105,38 L101,38 L101,19 L95,19 L95,15 Z"/>
    <path fill="#2E4EAD" d="M60,44 L92,44 L92,48 L60,48 L60,44 Z"/>
  </g>
</svg>
